PathFileType	4	(X/Y/Z)	C:/Users/beibeiliu/ov580/test_trc/User1\sequence.29_training_dense_right.trc
DataRate	CameraRate	NumFrames	NumMarkers	Units	OrigDataRate	OrigDataStartFrame	OrigNumFrames
120	120	22	19	mm	120	115	228
Frame#	Time	ThumbCMC			ThumbMCP			ThumbIP			ThumbTip			IndexMCP			IndexPIP			IndexTip			MiddleMCP			MiddlePIP			MiddleTip			RingMCP			RingPIP			RingTip			PinkyMCP			PinkyPIP			PinkyTip			BackHand1			BackHand2			BackHand3	
		X0	Y0	Z0	X1	Y1	Z1	X2	Y2	Z2	X3	Y3	Z3	X4	Y4	Z4	X5	Y5	Z5	X6	Y6	Z6	X7	Y7	Z7	X8	Y8	Z8	X9	Y9	Z9	X10	Y10	Z10	X11	Y11	Z11	X12	Y12	Z12	X13	Y13	Z13	X14	Y14	Z14	X15	Y15	Z15	X16	Y16	Z16	X17	Y17	Z17	X18	Y18	Z18	
114	0.95	149.087	-8.52952	65.3018	129.663	-24.9276	40.6638	122.01	-32.4828	15.3502	115.416	-43.6454	-10.065	182.364	10.5462	-7.63651	182.038	10.4171	-36.3549	183.46	4.66262	-62.6135	216.358	-3.40203	-9.38415	219.544	2.14753	-34.7601	227.36	4.17373	-62.4679	216.034	-26.9863	-10.6977	213.463	-37.8415	-42.3929	201.717	-50.6112	-59.4085	230.675	-52.0124	16.7904	243.374	-51.9271	0.202364	259.039	-48.5432	-8.75655	217.577	-27.3394	53.0237	214.711	-26.077	81.7769	190.693	-1.63647	67.991	
115	0.958333	148.531	-9.45434	69.4627	127.77	-25.0364	39.9437	120.129	-32.4059	14.2	119.09	-45.6537	-8.79353	184.839	8.79597	-5.95786	182.182	11.0503	-36.3538	179.549	7.60317	-64.3718	213.66	-1.50706	-8.61967	222.727	0.79205	-38.8716	227.757	5.48292	-66.9611	216.949	-31.4812	-7.29366	209.839	-36.9896	-39.8322	194.959	-54.2841	-57.9479	228.412	-49.672	14.3974	240.598	-49.7796	-1.91483	256.732	-43.9383	-11.9901	215.977	-27.6383	52.9882	213.633	-28.8871	84.3505	195.493	-1.72062	66.1014	
116	0.966667	152.249	-10.7008	66.1897	129.585	-26.2451	37.3258	120.508	-33.3662	10.3233	118.381	-45.3124	-8.28954	183.688	9.11617	-6.50577	180.198	12.217	-37.6527	181.056	4.07918	-64.7627	212.025	-0.702143	-10.5758	221.152	-0.903049	-39.2855	228.342	1.00556	-65.483	213.857	-30.4202	-12.0988	207.803	-40.4058	-40.3618	189.456	-55.4438	-54.7403	227.266	-47.9076	13.9382	237.724	-50.1551	2.2345	255.321	-42.3235	-14.6017	215.448	-25.9481	48.6926	214.058	-27.874	86.934	192.786	-0.302086	69.0396	
117	0.975	152.313	-12.2967	65.7009	128.776	-26.9633	37.9984	126.795	-35.8196	10.5687	118.964	-47.1986	-13.1407	180.943	11.7979	-9.85385	178.899	11.364	-36.0767	179.381	4.57477	-63.4401	211.925	-2.85796	-10.5167	216.91	-0.322472	-34.3858	226.778	-0.225239	-65.5419	214.568	-33.2025	-11.5119	204.305	-42.1891	-39.514	181.474	-58.1514	-55.4629	229.507	-51.0261	12.584	237.534	-50.4362	1.51154	256.175	-42.6842	-15.6055	214.833	-26.1418	48.7826	215.069	-33.1873	84.8674	193.228	-1.83238	63.5119	
118	0.983333	149.532	-10.7331	67.1675	131.969	-27.7473	33.4812	124.63	-36.8762	9.87877	122.674	-48.6427	-13.8577	181.03	10.3953	-6.62575	179.425	10.9218	-35.062	177.614	5.14136	-63.1585	210.283	-4.46677	-8.53597	217.326	-1.81264	-35.6265	228.118	-4.08952	-65.094	213.765	-34.5634	-14.6612	200.844	-46.6403	-42.3145	178.366	-58.7017	-53.518	225.488	-51.4876	15.4313	240.525	-53.3668	-2.69009	252.942	-44.5639	-13.8369	216.426	-27.7104	51.0501	214.899	-32.9126	83.7091	194.866	-1.67319	63.4006	
119	0.991667	149.875	-12.197	65.22	130.718	-28.0333	33.8971	128.308	-37.5449	9.08193	125.756	-51.1008	-12.9635	180.784	10.161	-5.86289	181.389	7.90029	-36.6671	178.517	2.59194	-62.2394	212.373	-4.16599	-11.7106	218.079	-2.66627	-37.8393	226.823	-6.22422	-63.7118	210.868	-32.7038	-11.1635	198.697	-48.0363	-41.3763	177.056	-59.9553	-49.0663	226.161	-53.8186	16.3821	237.937	-51.4855	-3.42793	253.455	-44.3017	-14.5509	213.455	-28.1801	51.6464	213.635	-29.4134	81.7895	190.904	-1.89937	64.2803	
120	1	148.6	-11.2123	65.8856	129.564	-27.2473	31.0571	129.165	-38.8634	6.49527	127.024	-52.1429	-14.0312	182.505	8.37594	-11.4088	179.844	9.09241	-36.951	178.948	1.10667	-61.6159	210.554	-3.4332	-13.2283	218.003	-4.69147	-36.1689	226.483	-4.71575	-65.7071	210.486	-34.6294	-11.8742	199.323	-47.9607	-39.5868	175.537	-64.2427	-47.6784	225.644	-54.0819	15.1898	235.869	-52.9175	0.0855172	253.751	-44.772	-14.6329	213.555	-26.7764	47.3554	212.602	-29.6265	85.3999	193.217	-1.56851	64.4707	
121	1.00833	148.796	-11.2953	64.4879	129.318	-29.6548	36.4695	129.676	-39.8589	4.63678	127.181	-53.7658	-15.02	182.485	6.99931	-8.48443	177.944	8.64554	-39.4496	177.762	1.00628	-65.4253	212.137	-8.77486	-9.33984	217.694	-4.67296	-36.7512	227.543	-7.02047	-69.1866	211.545	-37.2789	-12.3433	195.198	-50.9123	-40.1793	168.719	-63.7373	-46.8248	225.95	-53.3947	12.9124	235.172	-50.9321	-1.32219	254.16	-45.6791	-14.5321	214.631	-28.5172	48.2061	213.59	-33.701	82.1063	194.295	-5.78207	62.4344	
122	1.01667	148.204	-10.8022	64.1438	128.644	-30.035	34.4681	129.778	-40.9212	6.81533	132.083	-54.0806	-15.07	180.288	8.90719	-10.6486	178.335	8.1505	-39.3762	175.714	2.28012	-60.5698	210.518	-7.25355	-8.99121	217.535	-7.50764	-36.8626	224.673	-5.81347	-68.551	210.168	-37.4008	-13.9048	193.668	-49.5824	-40.2762	168.401	-67.2576	-45.3552	224.628	-50.3921	10.3506	233.927	-50.9803	-1.01474	255.203	-48.2438	-16.6907	216.966	-29.5583	47.6189	214.337	-34.9104	85.4915	191.632	-2.01932	67.1236	
123	1.025	147.995	-12.1394	67.4924	128.875	-30.0054	32.6179	130.072	-40.7372	9.78118	126.383	-55.9276	-15.5011	179.714	8.86982	-8.8717	177.53	8.50034	-35.6005	176.36	-0.744119	-65.5591	210.9	-8.7947	-10.4978	215.98	-6.28623	-39.4329	221.981	-5.88983	-67.2341	209.13	-36.4803	-15.0369	192.639	-48.9148	-39.4166	170.057	-66.7366	-43.8862	225.777	-53.6885	15.2464	238.014	-53.8202	-3.47236	254.367	-47.2511	-14.3065	216.742	-31.0477	49.6396	214.502	-32.6171	85.4079	191.153	-4.02307	66.7305	
124	1.03333	150.371	-14.1691	65.9738	131	-30.3347	36.6628	128.594	-41.7415	8.21621	130.368	-55.6823	-13.1684	179.38	8.14412	-10.8405	177.29	6.49011	-36.7519	173.982	0.703471	-62.5879	209.033	-5.55819	-13.3918	215.991	-8.06091	-35.9206	223.766	-7.85316	-67.4827	209.67	-38.7713	-12.7517	195.421	-51.0943	-39.0077	168.187	-66.462	-44.8669	227.451	-54.6264	12.2413	237.031	-54.4095	-3.11992	251.113	-46.6139	-14.7242	213.551	-30.1181	48.6053	211.443	-30.5522	85.6094	189.875	-2.96723	65.9829	
125	1.04167	149.419	-13.767	67.5875	129.234	-30.971	34.521	128.14	-41.9221	9.94782	128.557	-55.2262	-14.6556	178.956	7.05089	-6.97313	176.294	7.53315	-34.1691	174.441	-0.108361	-63.9313	210.631	-9.36273	-10.1726	214.58	-4.07608	-40.1036	224.079	-8.27509	-69.4	207.465	-36.0303	-12.926	193.792	-53.3699	-39.807	170.696	-65.9084	-44.3853	222.303	-52.508	14.2851	232.583	-52.7715	0.783876	249.245	-46.6763	-12.6728	217.414	-30.6585	49.2843	213.221	-33.24	83.5396	190.132	-4.03857	64.751	
126	1.05	149.927	-14.8024	66.168	130.478	-31.2171	36.7144	126.891	-41.0494	8.68331	127.936	-54.8718	-10.9818	177.593	8.22884	-6.81342	178.736	5.30299	-37.6535	178.14	-2.19874	-62.9676	211.689	-8.74062	-12.2656	216.38	-7.18383	-39.0616	224.003	-10.1304	-66.5449	210.417	-38.8575	-13.8677	195.633	-50.5504	-38.2066	171.753	-70.6012	-44.9861	224.598	-54.1772	15.4216	235.821	-56.1303	0.550416	250.784	-46.0122	-12.7836	214.768	-27.9295	49.2325	215.392	-33.5057	84.5427	191.971	-2.50286	64.2544	
127	1.05833	149.053	-13.6773	66.4563	133.45	-31.5789	35.348	126.933	-41.8122	11.5014	126.508	-54.4469	-12.0189	180.459	4.77245	-8.34973	176.341	7.76259	-37.1075	175.586	0.488016	-64.204	208.732	-6.60202	-10.4758	216.622	-8.10131	-39.7309	223.375	-8.25605	-68.749	208.333	-35.0388	-11.8941	195.389	-52.0595	-40.3834	174.884	-69.4646	-45.087	228.422	-53.7049	13.0928	237.533	-54.0886	-2.32696	253.69	-47.2797	-12.6577	215.326	-30.4564	48.5849	210.937	-31.8296	87.3091	191.229	-6.77375	67.3668	
128	1.06667	146.078	-12.7464	69.0548	130.577	-31.3574	40.3319	126.651	-41.1895	12.0356	122.958	-54.09	-13.8602	178.591	7.0307	-7.77222	179.333	5.04293	-32.7642	177.201	-0.491087	-60.1723	207.907	-8.41122	-7.37368	214.733	-5.07287	-38.8122	222.31	-7.53731	-69.1161	209.633	-33.6173	-12.4079	197.771	-48.0673	-40.0205	174.213	-66.4383	-47.4398	228.389	-55.2868	14.4944	235.025	-52.8654	1.7984	249.167	-46.579	-12.617	214.728	-30.5657	48.3999	215.181	-31.6861	85.7251	190.631	-6.44442	68.3067	
129	1.075	149.343	-13.7744	66.8035	130.219	-29.2867	37.9619	122.083	-38.4444	12.1156	118.244	-51.9838	-9.84929	181.464	5.32204	-10.0061	178.304	7.7733	-33.1891	178.316	1.15578	-60.4218	209.477	-6.18538	-10.9233	216.608	-6.89285	-38.5866	220.17	-5.62319	-69.5973	212.505	-33.0063	-8.72343	206.219	-43.9829	-36.9494	182.568	-64.0929	-51.3911	223.974	-52.7941	17.7084	239.649	-56.9505	0.602631	255.199	-51.3552	-11.9917	214.098	-29.615	51.0013	211.263	-31.0406	87.8713	190.544	-3.51953	67.2273	
130	1.08333	149.396	-12.7382	69.2913	126.405	-27.3508	36.9883	122.758	-37.2671	11.2232	118.195	-50.7923	-8.57746	180.595	6.06906	-6.86413	177.551	8.86479	-32.7263	181.53	1.73039	-59.7041	211.631	-10.2085	-11.6056	214.954	-6.9913	-40.1735	219.688	-7.5377	-66.4282	215.946	-33.645	-8.03222	210.042	-41.0298	-38.871	192.016	-57.1025	-58.4069	225.625	-52.5346	15.0021	237.542	-56.8493	4.20949	256.405	-49.1955	-10.9918	213.372	-27.4403	50.9549	214.556	-34.1064	86.4019	191.04	-5.59097	65.8138	
131	1.09167	149.947	-12.5855	66.145	126.771	-28.0327	42.5002	117.771	-37.1632	12.2798	113.381	-49.2529	-6.41733	177.79	7.70822	-4.69559	179.683	8.91113	-31.7813	178.697	5.70435	-59.1228	208.782	-10.1261	-7.6191	214.283	-6.67303	-41.1343	222.18	-9.09025	-68.9983	216.778	-32.7579	-5.28242	215.339	-36.3772	-37.4322	203.477	-50.806	-62.0998	227.42	-53.5407	16.876	239.965	-56.0315	0.334267	256.771	-50.8449	-9.52647	212.466	-28.6107	52.6664	215.647	-30.0043	82.6987	192.046	-4.66545	63.4941	
132	1.1	145.065	-11.5449	70.5442	124.21	-27.0918	42.7886	116.266	-35.4825	12.7126	114.064	-48.6542	-5.73779	181.619	3.54629	-4.96329	182.73	5.9205	-32.4783	181.036	7.37513	-63.1544	206.553	-6.76134	-8.55349	213.897	-7.19829	-40.3789	219.516	-9.44512	-65.9154	217.308	-31.2814	-6.41977	218.315	-32.3955	-33.8946	210.683	-40.6333	-62.1463	226.632	-54.3911	19.6043	240.946	-55.1019	0.247981	255.27	-50.1834	-11.8124	215.882	-28.6096	53.2326	215.514	-32.9611	86.5747	190.697	-3.39922	68.5747	
133	1.10833	144.815	-11.0214	70.6717	127.545	-27.7528	39.4681	119.36	-36.1071	17.039	112.151	-47.7173	-4.66748	178.728	7.47992	-7.01172	180.334	7.78093	-33.8004	186.097	4.12731	-62.2494	208.38	-11.0774	-11.5483	208.444	-7.05842	-37.1645	216.964	-10.7393	-67.06	218.559	-31.8762	-4.67217	222.248	-33.4871	-32.6508	220.621	-39.1091	-58.4911	230.167	-56.0737	17.8791	243.497	-57.7256	2.22986	254.71	-50.0508	-9.39985	213.781	-29.2278	51.3553	213.122	-27.4377	83.0237	188.633	-3.33055	66.1048	
134	1.11667	148.821	-12.7733	70.3295	127.57	-28.1881	43.6153	113.339	-34.4002	15.4341	107.451	-45.3574	-6.05018	181.256	5.1371	-5.83091	179.435	9.3441	-31.2308	184.155	6.87389	-61.1471	204.546	-7.78936	-12.393	207.649	-8.82689	-40.7883	213.088	-12.4995	-73.3551	217.33	-28.2762	-5.36305	221.479	-29.8402	-31.1902	220.393	-31.5778	-61.8642	227.072	-53.377	19.4476	241.183	-54.4618	0.573276	256.79	-48.3569	-8.76057	213.561	-26.4863	54.0399	212.569	-30.1504	87.4876	192.113	-5.17092	67.9443	
135	1.125	146.917	-11.6372	68.2676	123.201	-26.8459	43.3951	112.548	-34.1151	15.9249	107.965	-44.9589	-3.83172	177.327	6.66408	-4.60514	182.413	6.1502	-31.8012	186.524	4.97884	-58.3513	204.012	-10.7788	-15.6142	204.127	-10.9928	-42.3066	205.324	-14.2511	-69.9317	217.806	-28.5276	-8.79831	221.813	-29.0396	-35.1894	223.184	-32.6227	-57.1441	227.405	-53.5136	17.0037	243.437	-55.3825	1.75533	259.445	-48.3801	-6.93702	214.071	-28.459	49.2907	214.279	-28.0031	86.653	190.112	-5.04737	63.039	
